<svg aria-hidden="true" style="position: absolute; width: 0; height: 0; overflow: hidden;" version="1.1" xmlns="http://www.w3.org/2000/svg" xmlns:xlink="http://www.w3.org/1999/xlink">
<defs>
<symbol id="group-2" viewBox="0 0 32 32">
<path d="M14.14 1.806c-0.129-0.008-0.258-0.011-0.388-0.014h-0.28c-0.244 0-0.494 0.006-0.742 0.018l0.001 0c-0.010-0.001-0.019-0.001-0.029-0.001s-0.019 0-0.028 0.001l-0.047 0.002c-2.329 0.136-4.535 0.731-6.425 1.649l-0.266 0.128v13.626l0.623-0.212c0.546-0.187 1.128-0.356 1.731-0.513l-0.147 0.033c1.636-0.431 3.349-0.671 5.129-0.695v1.791c-0.223 0.001-0.439 0.007-0.655 0.018h-0.052l-0.053 0.002c-1.346 0.076-2.656 0.287-3.779 0.587l-0.135 0.029c-1.599 0.411-3.119 1.020-4.431 1.749v-17.474c1.497-0.873 3.11-1.53 4.79-1.948 1.474-0.381 2.991-0.576 4.514-0.582h0.263l0.021 0c0.318 0.007 0.635 0.023 0.889 0.043l0.042 0.002c0.787 0.057 1.555 0.185 2.207 0.357v1.762l0.095 0.019c-0.723-0.173-1.467-0.29-2.274-0.348-0.166-0.014-0.334-0.030-0.49-0.030h-0.084zM17.325 3.607c0.355 0.028 0.77 0.044 1.188 0.044 0.006 0 0.012 0 0.018 0h-0.001c1.689-0.007 3.324-0.228 4.881-0.639l-0.135 0.030c1.734-0.442 3.253-1.052 4.665-1.831l-0.101 0.051v17.163c-1.379 0.819-2.975 1.487-4.664 1.921l-0.127 0.028c-1.353 0.363-2.908 0.574-4.511 0.581h-0.004c-0.032 0-0.070 0-0.108 0-1.177 0-2.32-0.148-3.412-0.425l0.095 0.021v-17.274c0.265 0.061 0.537 0.117 0.814 0.164 0.455 0.077 0.934 0.133 1.401 0.167zM26.060 3.74l-0.623 0.209c-0.376 0.138-0.953 0.315-1.539 0.474l-0.192 0.044c-1.551 0.415-3.332 0.657-5.169 0.663h-0.004c-0.406 0-0.78-0.011-1.141-0.034l-0.497-0.033v14.017l0.426 0.037c0.363 0.033 0.785 0.052 1.212 0.052 0.001 0 0.002 0 0.003 0h-0c1.45-0.006 2.853-0.198 4.189-0.553l-0.116 0.026c1.221-0.31 2.281-0.702 3.285-1.189l-0.102 0.044 0.266-0.128v-13.63z"></path>
<path d="M5.372 25.975c-0.086-0.092-0.197-0.166-0.314-0.215-0.123-0.049-0.246-0.074-0.375-0.068-0.142 0-0.277 0.025-0.4 0.074-0.117 0.049-0.228 0.117-0.314 0.209-0.085 0.088-0.153 0.192-0.201 0.307l-0.002 0.007c-0.049 0.123-0.068 0.252-0.068 0.382v2.338c-0.006 0.166 0.025 0.326 0.092 0.48 0.055 0.117 0.135 0.222 0.234 0.308 0.092 0.080 0.203 0.135 0.32 0.166 0.111 0.037 0.228 0.049 0.345 0.049 0.135 0.006 0.258-0.025 0.382-0.080 0.117-0.049 0.222-0.123 0.308-0.215s0.16-0.197 0.203-0.314c0.049-0.117 0.080-0.246 0.080-0.369v-0.265h-0.615v0.209c0.006 0.074-0.006 0.142-0.031 0.209-0.025 0.050-0.056 0.092-0.092 0.129l0-0c-0.036 0.031-0.079 0.054-0.127 0.067l-0.002 0.001c-0.037 0.012-0.080 0.025-0.123 0.025-0.008 0.001-0.018 0.001-0.028 0.001-0.048 0-0.093-0.009-0.134-0.027l0.002 0.001c-0.054-0.021-0.098-0.058-0.129-0.104l-0.001-0.001c-0.051-0.082-0.081-0.182-0.081-0.289 0-0.009 0-0.018 0.001-0.027l-0 0.001v-2.172c-0.006-0.123 0.018-0.24 0.074-0.351 0.061-0.087 0.16-0.143 0.273-0.143 0.010 0 0.020 0 0.030 0.001l-0.001-0c0.049 0 0.105 0.012 0.148 0.031 0.049 0.025 0.092 0.062 0.123 0.105 0.068 0.086 0.105 0.197 0.098 0.308v0.203h0.603v-0.234c0.006-0.142-0.018-0.283-0.074-0.412-0.043-0.123-0.111-0.234-0.203-0.326zM8.997 25.945c-0.191-0.16-0.437-0.252-0.689-0.252-0.129 0-0.252 0.018-0.369 0.062s-0.228 0.111-0.32 0.191c-0.098 0.092-0.185 0.203-0.234 0.332-0.062 0.142-0.092 0.295-0.092 0.449v2.24c-0.006 0.16 0.025 0.314 0.092 0.455 0.055 0.123 0.135 0.228 0.234 0.314 0.092 0.086 0.203 0.154 0.32 0.197s0.24 0.068 0.369 0.068c0.265-0.002 0.506-0.102 0.69-0.266l-0.001 0.001c0.098-0.086 0.178-0.191 0.234-0.314 0.062-0.142 0.092-0.295 0.086-0.455v-2.24c0-0.011 0.001-0.023 0.001-0.036 0-0.293-0.123-0.558-0.32-0.745l-0-0zM8.714 28.966c0.006 0.062 0 0.117-0.025 0.178-0.018 0.055-0.055 0.105-0.098 0.148-0.080 0.068-0.178 0.105-0.283 0.105s-0.209-0.037-0.289-0.105c-0.041-0.041-0.074-0.090-0.097-0.145l-0.001-0.003c-0.016-0.044-0.026-0.096-0.026-0.149 0-0.010 0-0.020 0.001-0.031l-0 0.001v-2.24c-0.006-0.062 0.006-0.117 0.025-0.178 0.025-0.055 0.055-0.105 0.098-0.148 0.080-0.068 0.185-0.105 0.289-0.105s0.203 0.037 0.283 0.105c0.043 0.043 0.080 0.092 0.098 0.148 0.025 0.062 0.031 0.117 0.025 0.178v2.24zM13.76 29.963v-4.234h-0.585l-0.769 2.24h-0.012l-0.775-2.24h-0.585v4.234h0.609v-2.578h0.006l0.597 1.828h0.302l0.597-1.828h0.012v2.578h0.603zM17.2 26.025c-0.092-0.105-0.209-0.185-0.338-0.234-0.142-0.043-0.289-0.068-0.443-0.062h-0.898v4.234h0.603v-1.655h0.314c0.185 0.012 0.375-0.031 0.542-0.111 0.142-0.080 0.252-0.191 0.332-0.326 0.074-0.111 0.117-0.24 0.142-0.369 0.025-0.16 0.031-0.32 0.031-0.48 0.006-0.203-0.012-0.412-0.062-0.609-0.037-0.148-0.117-0.277-0.222-0.388zM16.892 27.317c-0.006 0.074-0.025 0.154-0.055 0.222-0.037 0.062-0.092 0.117-0.16 0.148-0.086 0.037-0.185 0.055-0.283 0.055h-0.277v-1.446h0.314c0.092 0 0.185 0.018 0.271 0.055 0.062 0.037 0.111 0.092 0.142 0.154 0.031 0.080 0.049 0.16 0.055 0.24v0.283c0 0.098 0.006 0.197 0 0.289h-0.006zM20.062 25.729h-0.492l-0.935 4.234h0.603l0.178-0.911h0.825l0.178 0.911h0.603l-0.96-4.234zM19.508 28.48l0.295-1.538h0.012l0.295 1.538h-0.603zM23.963 28.283h-0.006l-0.917-2.554h-0.578v4.234h0.603v-2.548h0.012l0.923 2.548h0.572v-4.234h-0.609v2.554zM27.655 25.729l-0.486 1.68h-0.012l-0.486-1.68h-0.64l0.831 2.443v1.791h0.603v-1.791l0.831-2.443h-0.64zM3.692 31.163h0.289v0.818h0.197v-0.818h0.289v-0.166h-0.775v0.166zM6.135 30.997l-0.382 0.985h0.209l0.080-0.228h0.394l0.086 0.228h0.215l-0.394-0.985h-0.209zM6.105 31.588l0.135-0.363 0.135 0.363h-0.271zM8.554 31.618h0.228v0.123c-0.068 0.055-0.148 0.086-0.234 0.086-0.037 0-0.080-0.006-0.117-0.025-0.037-0.015-0.068-0.038-0.092-0.067l-0-0c-0.046-0.073-0.074-0.162-0.074-0.257 0-0 0-0.001 0-0.001v0c0-0.222 0.098-0.332 0.289-0.332 0.049 0 0.098 0.012 0.135 0.037 0.043 0.031 0.074 0.074 0.086 0.123l0.191-0.037c-0.037-0.197-0.178-0.289-0.412-0.289-0.005-0-0.011-0-0.018-0-0.126 0-0.24 0.047-0.327 0.124l0.001-0c-0.049 0.049-0.092 0.111-0.117 0.178-0.025 0.062-0.031 0.135-0.025 0.203-0.006 0.135 0.037 0.265 0.123 0.369 0.049 0.049 0.105 0.086 0.172 0.111 0.062 0.025 0.135 0.037 0.203 0.031 0.154 0.006 0.302-0.049 0.418-0.154v-0.388h-0.431v0.166zM11.028 30.997h-0.203v0.985h0.689v-0.166h-0.486v-0.818z"></path>
<path d="M12.917 30.997h0.197v0.985h-0.197v-0.985z"></path>
<path d="M15.157 31.655l-0.4-0.658h-0.197v0.985h0.185v-0.646l0.4 0.646h0.197v-0.985h-0.185v0.658zM17.003 31.545h0.492v-0.166h-0.492v-0.215h0.529v-0.166h-0.726v0.985h0.745v-0.166h-0.548v-0.271zM21.483 31.385h-0.388v-0.388h-0.197v0.985h0.197v-0.431h0.388v0.431h0.197v-0.985h-0.197v0.388zM23.342 31.545h0.486v-0.166h-0.486v-0.215h0.529v-0.166h-0.732v0.985h0.751v-0.166h-0.548v-0.271zM25.858 31.545c0.172-0.025 0.258-0.117 0.258-0.271 0.002-0.010 0.002-0.021 0.002-0.032 0-0.033-0.008-0.065-0.021-0.092l0.001 0.001c-0.018-0.040-0.046-0.073-0.079-0.098l-0.001-0c-0.073-0.036-0.159-0.057-0.25-0.057-0.014 0-0.027 0-0.041 0.001l0.002-0h-0.412v0.985h0.197v-0.412h0.037c0.043-0.006 0.086 0.006 0.123 0.018 0.031 0.018 0.055 0.043 0.068 0.074l0.215 0.314h0.24l-0.123-0.191c-0.049-0.098-0.129-0.178-0.215-0.24zM25.655 31.409h-0.142v-0.246h0.154c0.068-0.006 0.135 0 0.203 0.025 0.012 0.012 0.025 0.025 0.031 0.043s0.012 0.037 0.012 0.055c-0.006 0.025-0.006 0.043-0.018 0.055-0.006 0.018-0.018 0.031-0.037 0.043-0.062 0.025-0.135 0.031-0.203 0.025zM27.754 31.545h0.492v-0.166h-0.492v-0.215h0.529v-0.166h-0.726v0.985h0.751v-0.166h-0.554v-0.271z"></path>
</symbol>
<symbol id="group-1" viewBox="0 0 32 32">
<path d="M6.128 0l4.771 4.517-8.857-0.005v21.915h23.149v-8.379l4.766 4.512v-22.559h-23.83zM24.982 4.71v12.807l-13.528-12.807h13.528zM20.782 23.221h-15.076v-14.74h1.066v13.742h14.011v0.997zM12.848 30.605c-0.057 0.085-0.091 0.19-0.091 0.303 0 0.001 0 0.003 0 0.004v-0c0 0.204 0.072 0.37 0.214 0.497s0.336 0.19 0.575 0.19q0.269 0 0.482-0.109 0.071-0.037 0.136-0.086l0.136 0.161h0.468l-0.355-0.421q0.209-0.286 0.209-0.733h-0.351c0 0.163-0.034 0.31-0.101 0.443l-0.468-0.552 0.165-0.12c0.1-0.068 0.184-0.152 0.249-0.249l0.002-0.003c0.048-0.079 0.076-0.174 0.076-0.275 0-0.001 0-0.003 0-0.004v0q0-0.115-0.042-0.211t-0.127-0.173c-0.108-0.097-0.251-0.157-0.408-0.157-0.008 0-0.017 0-0.025 0l0.001-0c-0.195 0-0.35 0.056-0.465 0.166s-0.173 0.259-0.173 0.449c0 0.078 0.018 0.158 0.054 0.241 0.038 0.083 0.104 0.184 0.197 0.302-0.179 0.129-0.3 0.24-0.36 0.334zM17.445 31.382c-0.166 0.144-0.387 0.216-0.663 0.216-0.193 0-0.363-0.045-0.511-0.136-0.146-0.092-0.259-0.222-0.339-0.39s-0.121-0.364-0.125-0.587v-0.226l0 0.002c-0-0.010-0-0.020-0-0.030 0-0.208 0.045-0.406 0.122-0.575l0.002-0.006c0.074-0.162 0.193-0.299 0.345-0.396 0.152-0.094 0.327-0.142 0.525-0.142 0.267 0 0.482 0.073 0.645 0.218s0.257 0.35 0.285 0.615h-0.419c-0.020-0.174-0.072-0.299-0.153-0.376s-0.2-0.116-0.357-0.116c-0.182 0-0.323 0.067-0.422 0.201-0.097 0.133-0.147 0.328-0.15 0.587v0.214c0 0.262 0.047 0.462 0.14 0.599s0.232 0.206 0.412 0.206c0.165 0 0.289-0.037 0.372-0.112s0.136-0.198 0.158-0.37h0.419c-0.024 0.257-0.12 0.46-0.286 0.605zM19.917 31.043c0.082-0.179 0.123-0.388 0.123-0.625v-0.134c0-0.007 0-0.016 0-0.024 0-0.216-0.047-0.421-0.131-0.605l0.004 0.009q-0.095-0.206-0.254-0.338-0.048-0.039-0.099-0.072c-0.152-0.095-0.327-0.143-0.524-0.143s-0.372 0.048-0.525 0.145q-0.041 0.025-0.078 0.055-0.172 0.136-0.276 0.359c-0.079 0.175-0.125 0.38-0.125 0.595 0 0.011 0 0.021 0 0.032l-0-0.002v0.136c0.001 0.232 0.043 0.436 0.126 0.613 0.084 0.178 0.203 0.315 0.356 0.411 0.154 0.095 0.329 0.143 0.525 0.143 0.199 0 0.374-0.048 0.526-0.143 0.152-0.097 0.27-0.234 0.352-0.413zM9.266 29.146l-0.557 1.147-0.557-1.147h-0.467l0.813 1.529v0.891h0.422v-0.891l0.811-1.529h-0.465zM9.966 31.566l0.196-0.564h0.938l0.197 0.564h0.439l-0.916-2.42h-0.378l-0.914 2.42h0.437zM13.507 30.068c-0.114-0.141-0.172-0.257-0.172-0.351 0-0.081 0.024-0.148 0.070-0.202 0.044-0.049 0.107-0.080 0.177-0.080 0.004 0 0.007 0 0.011 0l-0.001-0c0.003-0 0.006-0 0.009-0 0.067 0 0.127 0.026 0.173 0.068l-0-0c0.048 0.045 0.072 0.099 0.072 0.161 0 0.002 0 0.005 0 0.008 0 0.090-0.040 0.171-0.103 0.226l-0 0-0.052 0.042-0.184 0.126zM19.468 29.676c0.102 0.143 0.152 0.349 0.152 0.617v0.126c0 0.272-0.050 0.48-0.151 0.622-0.099 0.142-0.242 0.213-0.429 0.213-0.005 0-0.011 0-0.017 0-0.171 0-0.323-0.086-0.413-0.216l-0.001-0.002c-0.104-0.145-0.155-0.351-0.155-0.617v-0.14c0.002-0.26 0.054-0.462 0.156-0.603 0.091-0.13 0.24-0.215 0.409-0.215 0.006 0 0.012 0 0.018 0l-0.001-0c0.187 0 0.33 0.072 0.431 0.214zM10.631 29.659l0.351 1.004h-0.701l0.351-1.004zM13.94 31.141c-0.104 0.084-0.237 0.135-0.382 0.136h-0q-0.148 0-0.246-0.069-0.022-0.016-0.043-0.035c-0.067-0.066-0.108-0.157-0.108-0.259 0-0.005 0-0.009 0-0.014l-0 0.001c0-0.129 0.067-0.245 0.2-0.346l0.052-0.037 0.528 0.624z"></path>
</symbol>
<symbol id="group-3" viewBox="0 0 32 32">
<path d="M4.655 30.255c0.015 0 0.022 0 0.036 0.007 0.007 0 0.015 0.007 0.029 0.015l0.153 0.153c-0.124 0.124-0.269 0.218-0.444 0.284-0.196 0.073-0.415 0.109-0.633 0.109-0.204 0-0.407-0.029-0.596-0.102-0.167-0.058-0.32-0.153-0.444-0.269-0.131-0.124-0.225-0.269-0.291-0.422-0.073-0.175-0.102-0.356-0.102-0.538s0.036-0.371 0.109-0.538c0.065-0.16 0.175-0.305 0.305-0.422 0.138-0.124 0.298-0.211 0.48-0.276 0.189-0.065 0.4-0.102 0.611-0.095 0.018-0.001 0.039-0.001 0.061-0.001 0.355 0 0.682 0.124 0.938 0.331l-0.003-0.002-0.138 0.167-0.029 0.029c-0.015 0.007-0.036 0.007-0.058 0.007-0.015 0-0.036-0.007-0.051-0.015l-0.073-0.044-0.102-0.058c-0.044-0.015-0.087-0.036-0.131-0.051-0.058-0.022-0.124-0.029-0.182-0.044-0.080-0.015-0.16-0.015-0.233-0.015-0.153-0.007-0.305 0.022-0.444 0.073-0.131 0.044-0.247 0.109-0.342 0.204-0.189 0.179-0.306 0.431-0.306 0.711 0 0.013 0 0.027 0.001 0.040l-0-0.002c-0.007 0.145 0.022 0.291 0.080 0.436 0.044 0.116 0.124 0.225 0.218 0.32 0.095 0.087 0.204 0.153 0.327 0.196 0.131 0.051 0.269 0.073 0.415 0.073 0.080 0 0.16-0.007 0.24-0.015 0.131-0.015 0.255-0.051 0.364-0.116 0.058-0.029 0.109-0.065 0.16-0.109 0.022-0.015 0.044-0.022 0.073-0.022zM9.236 29.491c0 0.182-0.036 0.364-0.109 0.538-0.065 0.153-0.167 0.291-0.298 0.415-0.131 0.116-0.291 0.211-0.465 0.269-0.393 0.131-0.822 0.131-1.207 0-0.175-0.058-0.335-0.153-0.465-0.269-0.131-0.124-0.233-0.269-0.305-0.422-0.138-0.349-0.138-0.727 0-1.076 0.073-0.153 0.175-0.298 0.305-0.422 0.131-0.116 0.291-0.204 0.465-0.262 0.385-0.131 0.815-0.131 1.207 0 0.175 0.065 0.335 0.153 0.465 0.276 0.131 0.116 0.233 0.255 0.298 0.415 0.073 0.167 0.109 0.356 0.109 0.538zM8.822 29.491c0-0.145-0.022-0.291-0.080-0.429-0.044-0.124-0.116-0.233-0.211-0.327-0.094-0.086-0.205-0.155-0.327-0.201l-0.007-0.002c-0.284-0.095-0.596-0.095-0.873 0-0.131 0.051-0.247 0.116-0.342 0.204-0.095 0.095-0.167 0.204-0.211 0.327-0.102 0.276-0.102 0.582 0 0.858 0.044 0.116 0.116 0.233 0.211 0.32 0.095 0.095 0.211 0.16 0.342 0.204 0.276 0.095 0.589 0.095 0.873 0 0.131-0.044 0.24-0.109 0.335-0.204 0.095-0.087 0.167-0.204 0.211-0.32 0.058-0.138 0.080-0.284 0.080-0.429zM12.364 29.942l0.036 0.095c0.022-0.029 0.029-0.065 0.051-0.095 0.015-0.029 0.029-0.065 0.051-0.095l1.011-1.6c0.022-0.029 0.036-0.044 0.058-0.051 0.029-0.007 0.058-0.007 0.080-0.007h0.305v2.604h-0.356v-2.087l-1.018 1.622c-0.015 0.029-0.036 0.044-0.065 0.058-0.022 0.015-0.051 0.022-0.087 0.022h-0.051c-0.036 0-0.065-0.007-0.087-0.022-0.029-0.015-0.051-0.029-0.065-0.058l-1.047-1.629v2.087h-0.342v-2.596h0.298c0.029 0 0.058 0 0.087 0.007 0.022 0.007 0.044 0.029 0.051 0.051l1.040 1.6c0.015 0.029 0.036 0.065 0.051 0.095zM16.175 29.811v0.975h-0.4v-2.596h0.887c0.167-0.007 0.335 0.015 0.495 0.058 0.131 0.029 0.247 0.087 0.349 0.16 0.161 0.134 0.262 0.335 0.262 0.56 0 0.010-0 0.021-0.001 0.031l0-0.001c0.007 0.109-0.022 0.225-0.073 0.327-0.048 0.106-0.12 0.194-0.209 0.261l-0.002 0.001c-0.102 0.080-0.225 0.138-0.349 0.175-0.16 0.044-0.32 0.065-0.48 0.058l-0.48-0.007zM16.175 29.535h0.48c0.102 0 0.211-0.015 0.305-0.044 0.080-0.022 0.16-0.058 0.225-0.109 0.055-0.047 0.099-0.106 0.13-0.171l0.001-0.003c0.036-0.065 0.051-0.138 0.051-0.218 0-0.073-0.007-0.145-0.044-0.211-0.032-0.070-0.079-0.129-0.137-0.174l-0.001-0.001c-0.139-0.092-0.309-0.146-0.492-0.146-0.014 0-0.027 0-0.040 0.001l0.002-0h-0.48v1.076zM21.505 30.793h-0.313c-0.036 0-0.065-0.007-0.087-0.029-0.022-0.014-0.040-0.034-0.051-0.057l-0-0.001-0.269-0.625h-1.36l-0.276 0.625c-0.015 0.022-0.029 0.044-0.051 0.058-0.022 0.022-0.058 0.029-0.087 0.029h-0.313l1.185-2.604h0.415l1.207 2.604zM19.542 29.825h1.12l-0.473-1.062c-0.032-0.067-0.061-0.146-0.085-0.229l-0.003-0.011-0.051 0.131c-0.015 0.044-0.029 0.080-0.044 0.109l-0.465 1.062zM23.215 28.196c0.029 0.015 0.044 0.029 0.065 0.051l1.731 1.964v-2.022h0.356v2.604h-0.196c-0.029 0-0.058-0.007-0.087-0.015-0.022-0.015-0.044-0.029-0.058-0.051l-1.738-1.964c0.007 0.029 0.007 0.065 0 0.095v1.935h-0.349v-2.604h0.211c0.022 0 0.044 0 0.065 0.007zM28.291 29.753v1.040h-0.4v-1.040l-1.098-1.564h0.356c0.036 0 0.065 0.007 0.087 0.022s0.036 0.036 0.051 0.058l0.691 1.011c0.029 0.044 0.051 0.080 0.073 0.124l0.044 0.109 0.051-0.116c0.022-0.036 0.044-0.080 0.073-0.116l0.676-1.018c0.015-0.022 0.029-0.036 0.051-0.058 0.022-0.015 0.051-0.022 0.080-0.022h0.364l-1.098 1.571zM12.167 23.818c0.167 0.022 0.342 0.036 0.524 0.051 2.669-1.040 4.938-2.742 6.502-4.895 1.571-2.153 2.378-4.655 2.313-7.2l-2.945-2.567c0.596 2.713 0.32 5.513-0.815 8.095-1.127 2.582-3.062 4.836-5.578 6.516z"></path>
<path d="M11.113 23.702l0.080 0.015c2.691-1.68 4.749-4.015 5.891-6.713 1.149-2.698 1.338-5.636 0.545-8.429l-4.196-3.651c1.695 3.004 2.378 6.356 1.971 9.68s-1.898 6.48-4.291 9.098zM25.353 14.778c-0.713 2.8-2.444 5.324-4.938 7.193-0.727 0.553-1.513 1.040-2.349 1.469 2.029-0.524 3.898-1.44 5.462-2.684 1.556-1.244 2.764-2.785 3.527-4.502l-1.702-1.476z"></path>
<path d="M24.684 14.371l-2.422-2.109c-0.044 2.4-0.829 4.749-2.276 6.8-1.447 2.044-3.491 3.724-5.935 4.851h0.015c0.538 0 1.084-0.029 1.622-0.087 2.284-0.807 4.298-2.095 5.869-3.745s2.647-3.615 3.127-5.709zM11.462 3.389l-2.895-2.524c-2.582 0.873-4.807 2.4-6.378 4.385s-2.415 4.335-2.429 6.742c0.015 2.662 1.047 5.244 2.931 7.338 1.891 2.102 4.531 3.585 7.505 4.233 2.655-2.807 4.204-6.284 4.436-9.913 0.225-3.622-0.887-7.222-3.171-10.262zM31.375 13.978c-0.015-3.156-1.462-6.182-4.036-8.415-2.567-2.233-6.051-3.491-9.687-3.505-1.68 0-3.345 0.269-4.909 0.8l17.716 15.389c0.604-1.36 0.916-2.807 0.916-4.269z"></path>
</symbol>
<symbol id="group-5" viewBox="0 0 32 32">
<path d="M2.413 23.482c0.127 0.142 0.193 0.315 0.188 0.498 0.005 0.117-0.015 0.234-0.066 0.34-0.051 0.112-0.127 0.208-0.224 0.284-0.239 0.168-0.538 0.249-0.838 0.229h-1.473v-3.144h1.443c0.284-0.015 0.569 0.056 0.797 0.208 0.096 0.071 0.168 0.163 0.218 0.264s0.071 0.213 0.066 0.325c0.005 0.173-0.051 0.345-0.168 0.483-0.112 0.122-0.269 0.208-0.442 0.244 0.198 0.036 0.371 0.127 0.498 0.269zM0.686 23.010h0.615c0.142 0.005 0.279-0.030 0.391-0.107 0.051-0.041 0.086-0.086 0.107-0.137 0.025-0.056 0.036-0.112 0.030-0.173 0-0.056-0.005-0.112-0.030-0.163-0.022-0.057-0.057-0.105-0.101-0.142l-0.001-0c-0.099-0.068-0.222-0.109-0.354-0.109-0.018 0-0.037 0.001-0.055 0.002l0.002-0h-0.604v0.828zM1.752 24.213c0.051-0.041 0.091-0.086 0.117-0.142s0.036-0.117 0.030-0.178c0.001-0.009 0.001-0.020 0.001-0.030 0-0.054-0.014-0.105-0.038-0.149l0.001 0.002c-0.025-0.058-0.063-0.106-0.111-0.142l-0.001-0.001c-0.104-0.074-0.234-0.119-0.374-0.119-0.017 0-0.033 0.001-0.049 0.002l0.002-0h-0.645v0.863h0.655c0.147 0.010 0.295-0.030 0.411-0.107zM5.369 24.833l-0.808-1.229h-0.3v1.229h-0.691v-3.144h1.305c0.33-0.020 0.66 0.076 0.914 0.269 0.183 0.168 0.295 0.396 0.31 0.635 0.020 0.239-0.056 0.472-0.213 0.665-0.163 0.168-0.381 0.279-0.625 0.32l0.858 1.255h-0.752zM4.262 23.177h0.564c0.396 0 0.589-0.157 0.589-0.477 0.001-0.010 0.001-0.021 0.001-0.032 0-0.056-0.012-0.11-0.033-0.158l0.001 0.003c-0.025-0.061-0.061-0.117-0.112-0.168-0.127-0.091-0.284-0.137-0.447-0.127h-0.569l0.005 0.96zM9.148 24.203h-1.382l-0.244 0.63h-0.721l1.265-3.109h0.782l1.26 3.109h-0.726l-0.234-0.63zM8.96 23.726l-0.503-1.331-0.503 1.331h1.006zM13.877 24.833h-0.686l-1.539-2.138v2.138h-0.686v-3.144h0.686l1.539 2.149v-2.149h0.686v3.144zM17.793 24.081c-0.142 0.239-0.361 0.432-0.62 0.554-0.3 0.137-0.635 0.208-0.965 0.198h-1.224v-3.144h1.224c0.33-0.010 0.665 0.061 0.965 0.193 0.259 0.122 0.477 0.315 0.62 0.549 0.142 0.254 0.213 0.538 0.213 0.828 0 0.284-0.071 0.569-0.213 0.823zM17.006 24.005c0.198-0.208 0.305-0.472 0.305-0.752 0-0.274-0.107-0.538-0.305-0.747-0.234-0.193-0.544-0.29-0.858-0.269h-0.477v2.037h0.477c0.315 0.015 0.625-0.081 0.858-0.269zM9.575 4.196s8.858 3.063 8.67 7.492v7.497s-8.853-3.063-8.665-7.497l-0.005-7.492zM26.138 17.427c1.671-1.051 3.606-1.707 5.623-1.9v-2.342c-2.326 0.818-4.297 2.306-5.623 4.241z"></path>
<path d="M25.133 18.133c1.366-2.524 3.744-4.47 6.634-5.44v-6.761s-12.617 4.363-12.348 10.672v10.672s0.559-0.198 1.443-0.564c0-0.34 0-0.686 0.041-1.031 0.264-2.931 1.783-5.643 4.231-7.548z"></path>
<path d="M23.929 22.1c0.071-0.742 0.218-1.473 0.442-2.184-1.524 1.641-2.443 3.683-2.636 5.831-0.020 0.198-0.030 0.401-0.036 0.615 0.721-0.315 1.554-0.711 2.428-1.173-0.224-1.016-0.29-2.057-0.198-3.088zM24.432 22.136c-0.081 0.935-0.030 1.879 0.157 2.799 3.444-1.89 7.319-4.805 7.172-8.33v-0.31c-2.463 0.254-4.77 1.239-6.557 2.809-0.422 0.97-0.681 1.991-0.772 3.032z"></path>
</symbol>
<symbol id="group-6" viewBox="0 0 32 32">
<path d="M16.143 15.455c-0.15-0.201-0.225-0.436-0.204-0.677v-0.98c0-0.3 0.068-0.528 0.204-0.684s0.371-0.235 0.701-0.235c0.313 0 0.534 0.068 0.667 0.201 0.143 0.17 0.211 0.378 0.194 0.586v0.232h-0.558v-0.235c0.003-0.075-0.003-0.153-0.017-0.228-0.009-0.055-0.037-0.103-0.078-0.136l-0-0c-0.049-0.033-0.11-0.052-0.175-0.052-0.009 0-0.018 0-0.027 0.001l0.001-0c-0.009-0.001-0.019-0.001-0.030-0.001-0.069 0-0.133 0.021-0.186 0.057l0.001-0.001c-0.048 0.041-0.082 0.092-0.092 0.15-0.017 0.082-0.024 0.16-0.024 0.242v1.191c-0.007 0.116 0.017 0.232 0.072 0.337 0.031 0.034 0.068 0.061 0.112 0.078s0.095 0.024 0.146 0.020c0.072 0.003 0.14-0.014 0.197-0.054 0.044-0.037 0.075-0.088 0.082-0.146 0.014-0.078 0.020-0.157 0.017-0.238v-0.242h0.558v0.221c0.017 0.218-0.051 0.436-0.191 0.616-0.129 0.146-0.347 0.221-0.671 0.221-0.32 0-0.565-0.078-0.701-0.242zM18.468 15.466c-0.14-0.153-0.211-0.374-0.211-0.671v-1.031c0-0.289 0.072-0.511 0.211-0.66 0.143-0.15 0.378-0.225 0.708-0.225s0.565 0.075 0.705 0.225c0.14 0.15 0.214 0.371 0.214 0.66v1.031c0 0.293-0.075 0.517-0.218 0.671s-0.374 0.232-0.701 0.232c-0.323 0-0.565-0.078-0.708-0.232zM19.438 15.22c0.048-0.099 0.072-0.201 0.065-0.306v-1.266c0.007-0.102-0.014-0.204-0.065-0.3-0.027-0.034-0.068-0.065-0.116-0.082-0.044-0.017-0.095-0.024-0.146-0.017-0.012-0.002-0.025-0.003-0.039-0.003-0.089 0-0.168 0.039-0.223 0.101l-0 0c-0.051 0.095-0.075 0.197-0.068 0.3v1.273c-0.007 0.102 0.017 0.208 0.068 0.303 0.034 0.034 0.072 0.058 0.119 0.078 0.044 0.017 0.092 0.024 0.143 0.024 0.048 0 0.099-0.007 0.143-0.024 0.044-0.020 0.085-0.044 0.119-0.078v-0.003zM20.766 12.909h0.603l0.449 1.903 0.463-1.903h0.586l0.058 2.751h-0.432l-0.044-1.913-0.446 1.913h-0.347l-0.463-1.92-0.044 1.92h-0.436l0.054-2.751zM23.602 12.909h0.936c0.538 0 0.81 0.259 0.81 0.78 0 0.5-0.286 0.749-0.854 0.749h-0.32v1.222h-0.575l0.003-2.751zM24.402 14.083c0.054 0.007 0.112 0.003 0.17-0.014 0.054-0.014 0.106-0.041 0.146-0.072 0.068-0.095 0.095-0.204 0.082-0.313 0.003-0.082-0.003-0.167-0.027-0.248-0.007-0.029-0.021-0.055-0.041-0.075l0 0c-0.020-0.023-0.045-0.042-0.074-0.054l-0.001-0.001c-0.078-0.034-0.167-0.051-0.255-0.044h-0.225v0.82h0.225zM26.179 12.909h0.623l0.637 2.751h-0.538l-0.126-0.637h-0.555l-0.129 0.637h-0.548l0.637-2.751zM26.71 14.706l-0.214-1.154-0.218 1.154h0.432zM27.952 12.909h0.405l0.776 1.569v-1.569h0.48v2.751h-0.385l-0.78-1.637v1.637h-0.497v-2.751zM30.737 14.611l-0.643-1.699h0.541l0.395 1.089 0.368-1.089h0.531l-0.637 1.699v1.049h-0.555v-1.049zM17.035 16.861v0.143h-0.47v1.117h-0.197v-1.117h-0.477v-0.143h1.144zM18.516 18.121h-0.153c-0.017 0-0.031-0.003-0.044-0.010-0.010-0.008-0.018-0.019-0.024-0.030l-0-0.001-0.136-0.3h-0.654l-0.14 0.3c-0.003 0.014-0.010 0.024-0.020 0.034s-0.027 0.014-0.041 0.014h-0.153l0.579-1.263h0.201l0.586 1.256zM17.556 17.654h0.548l-0.232-0.514c-0.017-0.041-0.031-0.078-0.044-0.119-0.007 0.024-0.014 0.048-0.020 0.068l-0.020 0.051-0.232 0.514zM19.513 17.998h0.109c0.031-0.003 0.061-0.010 0.092-0.017 0.027-0.003 0.054-0.014 0.082-0.020 0.027-0.010 0.051-0.020 0.078-0.034v-0.283h-0.248c-0.005-0.003-0.010-0.006-0.014-0.010l-0.010-0.010c0-0.003-0.003-0.007-0.003-0.010v-0.099h0.449v0.483c-0.069 0.046-0.15 0.081-0.237 0.101l-0.005 0.001c-0.048 0.014-0.099 0.020-0.146 0.027-0.054 0.003-0.112 0.007-0.167 0.007-0.102 0-0.201-0.014-0.293-0.048-0.088-0.027-0.167-0.075-0.232-0.129-0.065-0.058-0.116-0.126-0.15-0.201-0.034-0.076-0.054-0.166-0.054-0.26 0-0.001 0-0.002 0-0.002v0c0-0.088 0.017-0.177 0.054-0.262 0.034-0.075 0.082-0.143 0.15-0.201 0.065-0.058 0.143-0.102 0.232-0.129 0.099-0.034 0.204-0.048 0.31-0.048 0.051 0 0.106 0.003 0.16 0.010 0.048 0.007 0.092 0.017 0.136 0.034 0.041 0.010 0.082 0.027 0.116 0.048 0.037 0.020 0.072 0.041 0.102 0.068l-0.058 0.075c-0.004 0.007-0.010 0.013-0.017 0.017l-0 0c-0.007 0.007-0.017 0.007-0.027 0.007-0.014 0-0.024-0.003-0.034-0.007-0.017-0.010-0.037-0.020-0.058-0.031-0.023-0.014-0.049-0.025-0.076-0.033l-0.002-0.001c-0.034-0.014-0.068-0.024-0.106-0.027-0.048-0.010-0.099-0.014-0.146-0.014-0.078 0-0.153 0.014-0.225 0.037-0.065 0.020-0.123 0.054-0.17 0.099s-0.082 0.099-0.106 0.157c-0.051 0.136-0.051 0.283 0 0.419 0.024 0.061 0.065 0.116 0.116 0.16 0.048 0.044 0.106 0.078 0.167 0.099 0.075 0.024 0.153 0.031 0.232 0.027zM21.355 17.978h0.633v0.143h-0.827v-1.26h0.197l-0.003 1.117zM22.645 18.121h-0.201v-1.26h0.201v1.26zM23.38 16.865c0.010 0.007 0.020 0.014 0.027 0.024l0.848 0.95c-0.002-0.007-0.003-0.014-0.003-0.022s0.001-0.015 0.003-0.023l-0 0.001v-0.94h0.17v1.266h-0.099c-0.014 0-0.027 0-0.041-0.007s-0.024-0.014-0.034-0.024v0l-0.844-0.95v0.98h-0.163v-1.26h0.102c0.010 0 0.024 0 0.034 0.003zM25.883 16.861v0.136h-0.701v0.419h0.569v0.133h-0.569v0.429h0.701v0.14h-0.906v-1.256h0.906zM5.161 9.072l8.78 2.152v7.544l-8.78-2.151v-7.544zM4.596 8.429v8.555l9.906 2.427v-8.552l-9.906-2.431z"></path>
<path d="M9.906 23.384l-9.906-2.431v-8.555l9.906 2.431v8.555z"></path>
<path d="M4.759 8.977l8.667 2.124-3.683 3.183-8.671-2.128 3.687-3.18zM4.596 8.429l-4.596 3.969 9.906 2.431 4.596-3.969-9.906-2.431zM10.465 22.9l4.037-3.486-4.037-0.994v4.48z"></path>
</symbol>
<symbol id="group-4" viewBox="0 0 32 32">
<path d="M7.899 12.379c0.674 0 1.218 0.486 1.218 1.084s-0.545 1.084-1.218 1.084-1.218-0.486-1.218-1.084 0.545-1.084 1.218-1.084z"></path>
<path d="M16.895 12.031c-0.003-0.831-0.373-1.625-1.036-2.215-0.66-0.587-1.555-0.918-2.493-0.921-0.935 0.003-1.83 0.334-2.493 0.921-0.66 0.589-1.033 1.384-1.036 2.215v4.584s7.057-0.699 7.057-4.581v-0.003zM4.211 18.116c0 0.578 0.258 1.134 0.719 1.541 0.46 0.41 1.083 0.64 1.735 0.643 0.651-0.003 1.274-0.233 1.732-0.64 0.46-0.41 0.721-0.963 0.721-1.541v-3.189s-4.907 0.486-4.907 3.186zM6.664 18.689c-0.126 0-0.253-0.034-0.356-0.095-0.107-0.065-0.188-0.152-0.239-0.258-0.030-0.065-0.048-0.14-0.048-0.22 0-0.038 0.004-0.076 0.012-0.112l-0.001 0.003c0.025-0.112 0.087-0.213 0.177-0.292 0.090-0.081 0.205-0.135 0.328-0.157 0.126-0.022 0.255-0.011 0.373 0.031 0.115 0.045 0.216 0.118 0.286 0.211 0.070 0.095 0.109 0.205 0.109 0.317 0 0.076-0.017 0.152-0.048 0.222-0.072 0.144-0.195 0.253-0.344 0.307l-0.004 0.001c-0.079 0.028-0.163 0.045-0.247 0.045v-0.003z"></path>
<path d="M12.747 18.602q0.065-0.132 0.065-0.309v-0.053q0-0.177-0.065-0.312-0.048-0.101-0.126-0.168-0.025-0.020-0.053-0.039-0.025-0.014-0.051-0.025-0.098-0.045-0.216-0.045t-0.216 0.045q-0.025 0.011-0.051 0.025-0.028 0.020-0.053 0.039-0.079 0.067-0.126 0.168-0.065 0.135-0.065 0.312v0.059q0.003 0.171 0.067 0.306 0.045 0.095 0.121 0.16 0.028 0.025 0.059 0.045 0.025 0.014 0.053 0.028 0.098 0.042 0.213 0.042 0.121 0 0.219-0.048 0.025-0.011 0.048-0.025 0.031-0.020 0.062-0.045 0.070-0.065 0.115-0.16zM13.589 18.473q0.022 0.031 0.022 0.076 0 0.037-0.017 0.065-0.011 0.020-0.034 0.037-0.048 0.037-0.138 0.037-0.138 0-0.197-0.070-0.039-0.048-0.039-0.129h-0.247q0 0.087 0.034 0.157 0.011 0.025 0.025 0.048l0.003 0.003q0.059 0.084 0.171 0.135t0.25 0.051q0.199 0 0.317-0.087 0.051-0.039 0.079-0.090 0.039-0.067 0.039-0.154 0-0.079-0.031-0.143-0.022-0.051-0.065-0.090-0.098-0.095-0.309-0.157-0.112-0.037-0.171-0.076-0.042-0.028-0.053-0.065-0.006-0.017-0.006-0.034 0-0.031 0.011-0.053 0.014-0.028 0.039-0.048 0.051-0.037 0.14-0.037 0.093 0 0.146 0.045 0.011 0.011 0.022 0.025 0.028 0.042 0.028 0.104h0.247q0-0.076-0.025-0.138-0.014-0.028-0.031-0.056-0.011-0.017-0.025-0.034-0.051-0.062-0.129-0.098-0.101-0.045-0.23-0.045-0.126 0-0.23 0.042-0.101 0.042-0.157 0.118-0.022 0.031-0.034 0.067-0.020 0.051-0.020 0.107t0.017 0.107q0.045 0.112 0.188 0.191 0.073 0.039 0.202 0.081t0.177 0.079q0.017 0.014 0.028 0.031zM23.222 18.473q0.022 0.031 0.022 0.076 0 0.037-0.017 0.065-0.011 0.020-0.034 0.037-0.051 0.037-0.138 0.037-0.138 0-0.197-0.070-0.039-0.048-0.039-0.129h-0.247q0 0.087 0.031 0.157 0.011 0.025 0.028 0.048l0.003 0.003q0.059 0.084 0.168 0.135 0.115 0.051 0.253 0.051 0.199 0 0.317-0.087 0.051-0.039 0.079-0.090 0.039-0.067 0.039-0.154 0-0.079-0.031-0.143-0.025-0.051-0.065-0.090-0.098-0.095-0.309-0.157-0.112-0.037-0.171-0.076-0.042-0.028-0.056-0.065-0.003-0.017-0.003-0.034 0-0.031 0.011-0.053 0.011-0.028 0.039-0.048 0.048-0.037 0.14-0.037t0.143 0.045q0.014 0.011 0.025 0.025 0.028 0.042 0.028 0.104h0.247q0-0.076-0.028-0.138-0.011-0.028-0.028-0.056-0.011-0.017-0.025-0.034-0.051-0.062-0.129-0.098-0.101-0.045-0.23-0.045-0.126 0-0.23 0.042-0.101 0.042-0.157 0.118-0.022 0.031-0.034 0.067-0.020 0.051-0.020 0.107t0.017 0.107q0.045 0.112 0.185 0.191 0.076 0.039 0.205 0.081 0.126 0.042 0.177 0.079 0.017 0.014 0.028 0.031zM11.152 18.375v0.488h-0.247v-1.196h0.778v0.199h-0.531v0.309h0.472v0.199h-0.472zM14.56 17.867h0.368v-0.199h-0.977v0.199h0.362v0.997h0.247v-0.997zM15.315 18.344h0.472v-0.194h-0.472v-0.284h0.553v-0.199h-0.8v1.196h0.803v-0.197h-0.556v-0.323zM16.261 18.425h0.197l0.225 0.438h0.264v-0.011l-0.258-0.488q0.107-0.048 0.16-0.132 0.053-0.081 0.053-0.202t-0.056-0.205q-0.022-0.034-0.059-0.065-0.115-0.093-0.326-0.093h-0.446v1.196h0.247v-0.438zM17.754 18.863v-0.421h0.216q0.213 0 0.334-0.101 0.042-0.037 0.070-0.081 0.051-0.081 0.051-0.197 0-0.093-0.034-0.168-0.008-0.020-0.022-0.039-0.014-0.025-0.037-0.051-0.048-0.053-0.121-0.090-0.101-0.048-0.236-0.048h-0.469v1.196h0.247zM18.841 18.344v0.323h0.556v0.197h-0.803v-1.196h0.803v0.199h-0.556v0.284h0.474v0.194h-0.474zM20.093 17.867h0.368v-0.199h-0.977v0.199h0.362v0.997h0.247v-0.997zM20.848 18.344h0.474v-0.194h-0.474v-0.284h0.553v-0.199h-0.8v1.196h0.803v-0.197h-0.556v-0.323zM21.794 18.425h0.197l0.225 0.438h0.267v-0.011l-0.261-0.488q0.109-0.048 0.163-0.132 0.053-0.081 0.053-0.202t-0.056-0.205q-0.025-0.034-0.059-0.065-0.115-0.093-0.328-0.093h-0.444v1.196h0.244v-0.438zM12.494 17.951q0.067 0.098 0.067 0.286v0.059q-0.003 0.188-0.067 0.284-0.031 0.045-0.070 0.067-0.053 0.031-0.121 0.031-0.070 0-0.121-0.031-0.045-0.025-0.073-0.070-0.067-0.101-0.067-0.284v-0.059q0-0.188 0.067-0.284 0.028-0.042 0.070-0.067 0.051-0.031 0.121-0.031t0.121 0.031q0.042 0.025 0.073 0.067zM16.46 18.226h-0.199v-0.359h0.199q0.098 0 0.146 0.048 0.008 0.008 0.014 0.017 0.034 0.045 0.034 0.118 0 0.062-0.028 0.104-0.011 0.014-0.022 0.025l-0.003 0.003q-0.051 0.045-0.14 0.045zM17.976 18.243h-0.222v-0.376h0.227q0.073 0 0.121 0.037 0.011 0.008 0.022 0.020t0.020 0.025q0.031 0.048 0.031 0.115 0 0.070-0.031 0.112-0.008 0.011-0.020 0.020-0.051 0.048-0.149 0.048zM21.993 18.226h-0.199v-0.359h0.199q0.098 0 0.149 0.048l0.011 0.017q0.037 0.045 0.037 0.118 0 0.062-0.031 0.104-0.008 0.014-0.020 0.025-0.003 0-0.003 0.003-0.051 0.045-0.143 0.045z"></path>
</symbol>
<symbol id="smartphone" viewBox="0 0 32 32">
<path d="M23 0h-14c-1.66 0-3 1.34-3 3v26c0 1.64 1.34 3 3 3h14c1.64 0 3-1.36 3-3v-26c0-1.66-1.36-3-3-3zM9 2h14c0.54 0 1 0.44 1 1v21h-16v-21c0-0.56 0.44-1 1-1zM23 30h-14c-0.56 0-1-0.46-1-1v-3h16v3c0 0.54-0.46 1-1 1z"></path>
<path d="M10.7 27.46c0.38 0.38 0.38 0.96 0 1.32-0.4 0.38-1.020 0.38-1.42 0-0.176-0.166-0.285-0.4-0.285-0.66s0.11-0.494 0.285-0.66l0-0c0.4-0.36 1.020-0.36 1.42 0z"></path>
</symbol>
<symbol id="antenna" viewBox="0 0 32 32">
<path d="M30.77 22.094l-8.443-8.503 0.937-4.617c0.242 0.096 0.498 0.146 0.759 0.146h0.005c0.008 0 0.018 0 0.027 0 1.192 0 2.158-0.966 2.158-2.158 0-1.182-0.951-2.142-2.129-2.158h-0.001c-0.009-0-0.019-0-0.029-0-1.182 0-2.141 0.951-2.156 2.129v0.001c-0.005 0.256 0.037 0.512 0.123 0.75l-4.96 0.608-8.091-8.137c-0.096-0.101-0.233-0.155-0.375-0.155s-0.274 0.055-0.375 0.151l-1.513 1.504c-0.206 0.21-0.206 0.549 0 0.754l0.814 0.827c-3.15 5.797-2.126 12.978 2.523 17.664 0.041 0.041 0.091 0.073 0.142 0.096-0.032 0.183-0.050 0.366-0.050 0.549v6.185h-6.4c-1.472 0.004-2.664 1.197-2.665 2.67v1.065c0 0.293 0.238 0.535 0.53 0.535h24.535c0.293 0 0.535-0.242 0.535-0.535v-1.065c-0.005-1.472-1.197-2.665-2.669-2.67h-6.4v-2.743c1.006 0.21 2.025 0.32 3.049 0.32 2.459 0 4.878-0.613 7.040-1.783l0.818 0.823c0.101 0.101 0.238 0.16 0.379 0.16 0.137 0 0.274-0.055 0.37-0.155l1.513-1.504c0.21-0.206 0.21-0.544 0-0.754zM23.278 6.231c0.416-0.416 1.093-0.411 1.509 0.005s0.411 1.093-0.005 1.509c-0.201 0.197-0.471 0.311-0.754 0.311-0.587-0.004-1.061-0.48-1.061-1.067 0-0.002 0-0.005 0-0.007v0c0-0.279 0.114-0.553 0.311-0.75zM22.021 9.737l-0.599 2.944-1.175-1.184 1.774-1.76zM21.417 8.832l-1.92 1.911-1.486-1.495 3.406-0.416zM24 28.8c0.887 0 1.6 0.713 1.6 1.6v0.53h-23.465v-0.53c0-0.887 0.718-1.6 1.6-1.6h20.265zM16.535 26.665v1.065h-5.335v-1.065h5.335zM11.2 25.6v-4.055c0-1.294 1.198-2.345 2.67-2.345 1.467 0 2.665 1.051 2.665 2.345v4.055h-5.335zM17.6 23.904v-2.359c0-1.883-1.673-3.415-3.73-3.415-0.016-0-0.036-0-0.055-0-1.354 0-2.543 0.707-3.218 1.772l-0.009 0.016c-4.059-4.274-4.974-10.647-2.277-15.886l18.601 18.706c-2.875 1.463-6.167 1.874-9.312 1.166zM28.891 23.218l-0.754-0.754-20.302-20.425 0.754-0.754 7.931 7.982c0.005 0 0.009 0.005 0.014 0.009l13.111 13.189-0.754 0.754z"></path>
<path d="M13.874 20.265h-0.005c-0.887 0-1.605 0.713-1.605 1.595 0 0.001 0 0.003 0 0.005 0 0.884 0.716 1.6 1.6 1.6 0 0 0 0 0 0h0.005c0.882 0 1.6-0.713 1.6-1.6 0.005-0.882-0.713-1.6-1.595-1.6zM14.245 22.245c-0.101 0.096-0.233 0.155-0.375 0.155-0.297-0.005-0.535-0.242-0.53-0.539 0-0.142 0.055-0.274 0.155-0.375 0.101-0.096 0.233-0.155 0.375-0.155 0.293 0.005 0.53 0.242 0.53 0.535 0 0.142-0.059 0.279-0.16 0.379h0.005z"></path>
</symbol>
<symbol id="astronaut" viewBox="0 0 32 32">
<path d="M31.973 4.521c-0.064-0.192-0.229-0.334-0.43-0.361l-1.911-0.279-0.855-1.733c-0.178-0.361-0.777-0.361-0.955 0l-0.855 1.733-1.911 0.279c-0.201 0.027-0.37 0.169-0.434 0.361-0.059 0.192-0.009 0.407 0.137 0.549l1.381 1.349-0.325 1.902c-0.032 0.201 0.050 0.402 0.21 0.521 0.169 0.119 0.384 0.137 0.562 0.041l1.71-0.901 1.71 0.901c0.078 0.041 0.165 0.059 0.247 0.059 0.002 0 0.003 0 0.005 0 0.292 0 0.529-0.237 0.529-0.529 0-0.033-0.003-0.065-0.009-0.096l0 0.003-0.325-1.902 1.381-1.349c0.146-0.142 0.197-0.357 0.137-0.549zM29.509 5.847c-0.123 0.123-0.183 0.302-0.151 0.475l0.187 1.111-1.001-0.526c-0.078-0.041-0.16-0.059-0.247-0.059s-0.169 0.018-0.247 0.059l-1.001 0.526 0.192-1.111c0.027-0.174-0.027-0.352-0.155-0.475l-0.809-0.786 1.12-0.165c0.174-0.023 0.325-0.133 0.402-0.293l0.498-1.010 0.498 1.010c0.078 0.16 0.229 0.27 0.402 0.293l1.12 0.165-0.809 0.786z"></path>
<path d="M25.065 20.521h1.065v1.065h-1.065v-1.065zM25.065 22.651h1.065v1.070h-1.065v-1.070zM26.13 21.586h1.070v1.065h-1.070v-1.065zM24 21.586h1.065v1.065h-1.065v-1.065zM21.33 26.386h1.070v1.065h-1.070v-1.065zM21.33 28.521h1.070v1.065h-1.070v-1.065zM22.4 27.451h1.065v1.070h-1.065v-1.070zM20.265 27.451h1.065v1.070h-1.065v-1.070zM14.93 24.251h1.070v1.070h-1.070v-1.070zM14.93 26.386h1.070v1.065h-1.070v-1.065zM16 25.321h1.065v1.065h-1.065v-1.065zM13.865 25.321h1.065v1.065h-1.065v-1.065zM4.795 6.121h1.070v1.065h-1.070v-1.065zM4.795 8.251v1.070h1.070v-1.070h-1.070zM5.865 7.186h1.065v1.065h-1.065v-1.065zM3.73 7.186h1.065v1.065h-1.065v-1.065z"></path>
<path d="M24.713 14.158c-0.288-0.389-0.709-0.64-1.189-0.704-0.48-0.069-0.955 0.055-1.339 0.352l-1.253 0.96-1.897 1.417-1.358-0.544c2.418-1.083 4.114-3.506 4.114-6.318 0-3.822-3.122-6.935-6.962-6.935s-6.962 3.113-6.962 6.935c0 1.385 0.416 2.674 1.12 3.758l-2.77-0.023c-0.005 0-0.014 0.005-0.023 0.005-0.050 0-0.105 0.014-0.155 0.032-0.009 0.005-0.023 0.005-0.037 0.014-0.005 0-0.014 0-0.018 0.005l-3.237 1.595-1.893 0.91c-0.018 0.009-0.041 0.023-0.064 0.037-0.482 0.324-0.794 0.867-0.794 1.484 0 0.296 0.072 0.575 0.2 0.821l-0.005-0.010c0.224 0.43 0.599 0.745 1.056 0.891 0.178 0.055 0.361 0.082 0.539 0.082 0.293 0 0.581-0.073 0.841-0.21l1.39-0.741 2.263-1.17 1.358-0.005-6.784 6.747c-0.315 0.315-0.489 0.731-0.489 1.179 0 0.443 0.174 0.864 0.489 1.179 0.303 0.3 0.719 0.485 1.179 0.485s0.877-0.185 1.18-0.485l-0 0 1.317-1.312 1.742-1.298 0.901 0.896-3.104 3.090c-0.315 0.315-0.489 0.731-0.489 1.179 0 0.443 0.174 0.859 0.489 1.175 0.325 0.325 0.754 0.489 1.179 0.489 0.43 0 0.855-0.165 1.179-0.489l1.339-1.33 2.144-2.135 1.010-1.001-0.005-0.005c0.009-0.005 0.018-0.009 0.023-0.014l5.166-5.659 3.47 0.494c0.027 0.005 0.050 0.005 0.078 0.005 0.064 0 0.128-0.014 0.187-0.037 0.018-0.009 0.032-0.014 0.050-0.023l0.055-0.027 3.214-2.135c0.014-0.009 0.018-0.018 0.032-0.027 0.009-0.014 0.027-0.014 0.037-0.027l1.271-1.189c0.348-0.326 0.565-0.789 0.565-1.302 0-0.4-0.132-0.769-0.354-1.066l0.003 0.005zM2.13 17.769c-0.099 0.053-0.216 0.084-0.34 0.084-0.279 0-0.522-0.156-0.645-0.386l-0.002-0.004c-0.16-0.315-0.069-0.695 0.215-0.905l1.312-0.631 0.315 0.923 0.137 0.389-0.992 0.53zM5.627 15.941l-1.55 0.8-0.256-0.745-0.183-0.539 2.025-1.001-0.037 1.486zM20.727 9.321c0 0.919-0.219 1.783-0.599 2.56l-4.183-1.902c-0.046-0.571-0.343-1.074-0.791-1.385l1.467-4.864c2.377 0.759 4.105 2.976 4.105 5.591zM8.937 9.321c0-3.237 2.642-5.87 5.893-5.87 0.251 0 0.503 0.023 0.745 0.055l-1.431 4.754c-0.018 0-0.037-0.009-0.059-0.009-1.033 0-1.87 0.841-1.87 1.87s0.837 1.865 1.87 1.865c0.695 0 1.298-0.384 1.618-0.946l3.863 1.755c-1.074 1.449-2.793 2.391-4.736 2.391-3.25 0-5.893-2.633-5.893-5.865zM14.894 10.121c0 0.439-0.361 0.8-0.809 0.8-0.443 0-0.805-0.361-0.805-0.8 0-0.443 0.361-0.8 0.805-0.8 0.448 0 0.809 0.357 0.809 0.8zM2.464 25.143c-0.238 0.233-0.622 0.233-0.855 0-0.11-0.106-0.178-0.254-0.178-0.419 0-0.001 0-0.001 0-0.002v0c0-0.16 0.064-0.311 0.178-0.421l0.96-0.96 0.85 0.846-0.955 0.955zM5.678 28.878c-0.238 0.233-0.622 0.233-0.855 0-0.114-0.114-0.178-0.265-0.178-0.421 0-0.16 0.064-0.311 0.178-0.425l0.96-0.955 0.855 0.846-0.96 0.955zM9.157 25.408l-1.765 1.76-0.402-0.398-0.448-0.448 1.76-1.755h0.005c0.037-0.041 0.064-0.091 0.087-0.137 0.009-0.014 0.023-0.027 0.027-0.041 0.018-0.041 0.018-0.082 0.027-0.128 0-0.023 0.014-0.046 0.014-0.073 0-0.037-0.014-0.069-0.023-0.105-0.005-0.032-0.005-0.064-0.018-0.096-0.018-0.050-0.055-0.091-0.091-0.137-0.009-0.009-0.014-0.027-0.023-0.037-0.005 0-0.005 0-0.005-0.005l-1.605-1.6c-0.018-0.014-0.041-0.023-0.059-0.037-0.027-0.023-0.055-0.041-0.087-0.059-0.032-0.014-0.059-0.023-0.091-0.032-0.037-0.009-0.069-0.014-0.105-0.018-0.032 0-0.064 0-0.096 0.005-0.037 0.005-0.069 0.009-0.101 0.018-0.037 0.014-0.064 0.027-0.096 0.046-0.018 0.014-0.041 0.018-0.059 0.032l-1.774 1.321-0.901-0.896 2.395-2.386 4.361 4.288-0.928 0.919zM15.977 18.391c-0.014 0-0.032 0.005-0.046 0.005-0.037-0.005-0.078 0-0.114 0.005-0.032 0.005-0.059 0.014-0.087 0.023-0.037 0.014-0.069 0.027-0.101 0.046-0.027 0.018-0.055 0.037-0.082 0.064-0.014 0.009-0.027 0.014-0.037 0.027l-4.699 5.147-4.329-4.256 2.834-2.821c0.097-0.096 0.157-0.23 0.157-0.377 0-0.294-0.238-0.533-0.533-0.533-0.001 0-0.002 0-0.004 0l-2.222 0.014 0.027-1.609 3.104 0.027c1.266 1.294 3.031 2.098 4.983 2.098 0.439 0 0.864-0.046 1.28-0.119 0.041 0.032 0.078 0.064 0.128 0.082l2.409 0.96 0.155 0.759 0.178 0.887-3.003-0.43zM20.018 18.569l-0.315-1.559 1.449-1.079 0.379 0.503 0.567 0.754-2.080 1.381zM23.771 15.739l-0.837 0.786-0.933-1.239 0.832-0.635c0.155-0.119 0.352-0.169 0.544-0.142 0.352 0.049 0.619 0.347 0.619 0.708 0 0.206-0.087 0.391-0.226 0.521l-0 0z"></path>
<path d="M13.6 18.542l-2.144-2.135c-0.206-0.206-0.544-0.206-0.75 0l-2.144 2.135c-0.101 0.101-0.155 0.238-0.155 0.379s0.055 0.279 0.155 0.375l2.144 2.135c0.101 0.105 0.238 0.155 0.375 0.155s0.274-0.050 0.375-0.155l2.144-2.135c0.101-0.096 0.155-0.233 0.155-0.375s-0.055-0.279-0.155-0.379zM11.081 20.302l-1.385-1.381 1.385-1.381 1.385 1.381-1.385 1.381zM17.161 5.070l-0.256 1.033c0.069 0.018 1.737 0.453 1.737 2.149h1.065c0-2.016-1.664-2.962-2.546-3.182z"></path>
<path d="M18.642 9.321h1.065v1.065h-1.065v-1.065z"></path>
</symbol>
<symbol id="clock" viewBox="0 0 32 32">
<path d="M31.296 15.301c-0.005-8.453-6.857-15.305-15.31-15.301-8.453 0-15.301 6.853-15.301 15.305 0 6.661 4.306 12.553 10.647 14.578 0.064 0.018 0.123 0.027 0.187 0.027 0.123 0 0.242-0.032 0.343-0.096 0.137-0.078 0.238-0.206 0.283-0.357l3.867-12.247c1.056-0.005 1.906-0.869 1.902-1.925-0.007-1.052-0.861-1.902-1.914-1.902-0.004 0-0.007 0-0.011 0h0.001c-0.283 0-0.562 0.064-0.818 0.192l-5.106-5.106c-0.251-0.247-0.658-0.238-0.901 0.014-0.238 0.247-0.238 0.64 0 0.887l5.102 5.106c-0.121 0.242-0.192 0.527-0.192 0.828 0 0.602 0.283 1.138 0.723 1.482l0.004 0.003-3.68 11.671c-7.278-2.679-11.003-10.752-8.325-18.030 2.683-7.278 10.757-11.008 18.034-8.325 7.278 2.679 11.003 10.752 8.32 18.030-1.343 3.582-4.001 6.407-7.373 7.937l-0.088 0.036-0.398-1.874c-0.073-0.343-0.411-0.562-0.754-0.489-0.11 0.023-0.21 0.073-0.293 0.146l-3.84 3.429c-0.261 0.233-0.283 0.635-0.050 0.901 0.078 0.082 0.174 0.146 0.283 0.183l4.896 1.563c0.338 0.105 0.695-0.078 0.805-0.411 0.032-0.11 0.041-0.219 0.018-0.329l-0.393-1.838c5.664-2.391 9.344-7.945 9.33-14.089zM15.991 14.661c0.352 0 0.635 0.288 0.635 0.64s-0.283 0.635-0.635 0.635c-0.352 0-0.64-0.283-0.64-0.635s0.288-0.64 0.64-0.64zM18.089 29.527l2.185-1.952 0.603 2.843-2.789-0.891z"></path>
<path d="M15.351 3.182v1.275c0 0.352 0.288 0.64 0.64 0.64s0.635-0.288 0.635-0.64v-1.275c0-0.352-0.283-0.635-0.635-0.635s-0.64 0.283-0.64 0.635zM3.872 14.661c-0.352 0-0.635 0.288-0.635 0.64s0.283 0.635 0.635 0.635h1.275c0.352 0 0.64-0.283 0.64-0.635s-0.288-0.64-0.64-0.64h-1.275zM28.105 15.936c0.352 0 0.64-0.283 0.64-0.635s-0.288-0.64-0.64-0.64h-1.275c-0.352 0-0.635 0.288-0.635 0.64s0.283 0.635 0.635 0.635h1.275z"></path>
</symbol>
<symbol id="diagram" viewBox="0 0 32 32">
<path d="M14.921 14.962h1.070v4.795h-1.070v-4.795zM19.186 17.093h1.070v2.665h-1.070v-2.665zM10.661 18.693h1.065v1.065h-1.065v-1.065zM7.461 18.162h1.065v1.595h-1.065v-1.595z"></path>
<path d="M1.595 28.288h25.586c0.887 0 1.6-0.713 1.6-1.6v-2.13c0-0.882-0.713-1.6-1.6-1.6h-0.53v-13.294l3.026-2.866c0.704 0.347 1.554 0.137 2.016-0.498 0.457-0.635 0.393-1.509-0.155-2.071-0.292-0.298-0.699-0.482-1.148-0.482-0.888 0-1.608 0.72-1.608 1.608 0 0.247 0.056 0.48 0.155 0.689l-0.004-0.010-2.281 2.162v-1.23c0-0.882-0.718-1.6-1.6-1.6h-21.321c-0.882 0-1.6 0.718-1.6 1.6v15.991h-0.535c-0.882 0-1.595 0.718-1.595 1.6v2.13c0 0.887 0.713 1.6 1.595 1.6zM30.382 4.837c0.293 0 0.535 0.238 0.535 0.53 0 0.297-0.242 0.535-0.535 0.535s-0.535-0.238-0.535-0.535c0-0.293 0.242-0.53 0.535-0.53zM3.195 6.967c0-0.293 0.238-0.535 0.535-0.535h21.321c0.293 0 0.535 0.242 0.535 0.535v2.24l-1.070 1.010v-2.185c0-0.293-0.238-0.53-0.53-0.53h-19.191c-0.293 0-0.535 0.238-0.535 0.53v13.326c0 0.297 0.242 0.535 0.535 0.535h19.191c0.293 0 0.53-0.238 0.53-0.535v-9.673l1.070-1.010v12.283h-22.391v-15.991zM7.995 13.897c-0.003-0-0.007-0-0.011-0-0.732 0-1.348 0.492-1.536 1.164l-0.003 0.011c-0.037 0.127-0.058 0.274-0.058 0.425 0 0.581 0.312 1.090 0.777 1.367l0.007 0.004c0.622 0.37 1.408 0.279 1.929-0.224l1.851 0.928c0.215 0.11 0.475 0.059 0.635-0.119l3.941-4.434 3.872 2.903c0.206 0.155 0.498 0.137 0.686-0.041l3.365-3.186v8.133h-18.121v-12.261h18.121v2.661l-3.771 3.57-3.904-2.926c-0.088-0.068-0.2-0.109-0.322-0.109-0.157 0-0.298 0.068-0.395 0.177l-0 0.001-3.995 4.494-1.49-0.745c0.009-0.064 0.018-0.128 0.018-0.192 0-0.887-0.713-1.6-1.595-1.6zM8.526 15.497c0 0.293-0.238 0.53-0.53 0.53-0.001 0-0.001 0-0.002 0-0.294 0-0.533-0.238-0.533-0.533s0.238-0.533 0.533-0.533c0.294 0 0.533 0.238 0.533 0.533 0 0.001 0 0.002 0 0.002v-0zM11.726 24.023h5.33v0.535c0 0.293-0.238 0.535-0.535 0.535h-4.265c-0.293 0-0.53-0.242-0.53-0.535v-0.535zM1.065 24.558c0-0.293 0.238-0.535 0.53-0.535h9.065v0.535c0 0.882 0.713 1.6 1.595 1.6h4.265c0.882 0 1.6-0.718 1.6-1.6v-0.535h9.061c0.297 0 0.535 0.242 0.535 0.535v2.13c0 0.297-0.238 0.535-0.535 0.535h-25.586c-0.293 0-0.53-0.238-0.53-0.535v-2.13z"></path>
</symbol>
<symbol id="envelope" viewBox="0 0 32 32">
<path d="M29 4h-26c-1.66 0-3 1.34-3 3v18c0 1.64 1.34 3 3 3h26c1.64 0 3-1.36 3-3v-18c0-1.66-1.36-3-3-3zM29 6c0.12 0 0.26 0.020 0.38 0.060l-13.38 11.6-13.4-11.6c0.12-0.040 0.26-0.060 0.4-0.060h26zM29 26h-26c-0.56 0-1-0.46-1-1v-16.82l13.34 11.56c0.18 0.16 0.42 0.26 0.66 0.26 0.22 0 0.46-0.1 0.64-0.26l13.36-11.56v16.82c0 0.54-0.46 1-1 1z"></path>
</symbol>
<symbol id="facebook" viewBox="0 0 32 32">
<path d="M21.328 5.312h2.912v-5.088c-0.496-0.080-2.24-0.224-4.256-0.224-4.208 0-7.088 2.64-7.088 7.504v4.496h-4.656v5.68h4.656v14.32h5.696v-14.32h4.448l0.72-5.68h-5.168v-3.92c0-1.648 0.432-2.768 2.736-2.768z"></path>
</symbol>
<symbol id="instagram" viewBox="0 0 32 32">
<path d="M31.968 9.408c-0.080-1.712-0.352-2.88-0.752-3.888-0.4-1.072-1.024-2.032-1.856-2.832-0.8-0.816-1.76-1.456-2.832-1.856-1.008-0.384-2.176-0.672-3.872-0.736-1.712-0.080-2.256-0.096-6.608-0.096-4.336 0-4.88 0.016-6.592 0.080-1.696 0.080-2.864 0.352-3.888 0.752-1.072 0.4-2.032 1.024-2.832 1.856-0.816 0.8-1.44 1.76-1.84 2.816-0.4 1.024-0.672 2.192-0.752 3.888-0.080 1.712-0.096 2.256-0.096 6.608 0 4.336 0.016 4.88 0.096 6.592 0.080 1.696 0.352 2.864 0.736 3.888 0.416 1.072 1.040 2.032 1.856 2.832 0.8 0.816 1.776 1.44 2.832 1.84 1.024 0.4 2.176 0.672 3.888 0.752 1.696 0.064 2.24 0.096 6.592 0.096 4.336 0 4.88-0.032 6.592-0.096 1.696-0.080 2.864-0.352 3.888-0.752 2.144-0.832 3.84-2.528 4.672-4.672 0.4-1.024 0.672-2.192 0.752-3.888 0.064-1.712 0.096-2.256 0.096-6.592 0-4.352-0.016-4.896-0.080-6.592zM29.072 22.464c-0.064 1.568-0.32 2.4-0.544 2.976-0.544 1.392-1.648 2.496-3.040 3.040-0.56 0.208-1.408 0.48-2.96 0.544-1.696 0.080-2.208 0.096-6.464 0.096-4.272 0-4.784-0.016-6.464-0.096-1.568-0.064-2.416-0.336-2.976-0.544-0.688-0.256-1.328-0.672-1.84-1.2-0.528-0.528-0.928-1.152-1.184-1.84-0.224-0.56-0.496-1.408-0.56-2.976-0.080-1.68-0.096-2.192-0.096-6.464 0-4.256 0.016-4.768 0.096-6.464 0.064-1.552 0.336-2.4 0.56-2.96 0.256-0.688 0.656-1.328 1.2-1.84 0.512-0.528 1.136-0.944 1.824-1.2 0.576-0.208 1.424-0.48 2.976-0.544 1.68-0.080 2.192-0.096 6.464-0.096s4.784 0.016 6.464 0.096c1.568 0.064 2.4 0.336 2.976 0.544 0.688 0.256 1.312 0.672 1.824 1.2 0.544 0.512 0.944 1.152 1.2 1.84 0.224 0.56 0.48 1.408 0.544 2.96 0.080 1.696 0.096 2.208 0.096 6.464 0 4.272-0.016 4.784-0.096 6.464z"></path>
<path d="M16 8c-4.432 0-8 3.568-8 8 0 4.416 3.568 8 8 8 4.416 0 8-3.584 8-8 0-4.432-3.584-8-8-8zM16 21.184c-2.88 0-5.2-2.32-5.2-5.184 0-2.88 2.32-5.2 5.2-5.2 2.864 0 5.184 2.32 5.184 5.2 0 2.864-2.32 5.184-5.184 5.184z"></path>
<path d="M26.512 7.456c0 1.056-0.848 1.92-1.92 1.92-1.056 0-1.92-0.864-1.92-1.92 0-1.072 0.864-1.92 1.92-1.92 1.072 0 1.92 0.848 1.92 1.92z"></path>
</symbol>
<symbol id="linkedin" viewBox="0 0 32 32">
<path d="M31.984 32v-0.016h0.016v-11.728c0-5.744-1.248-10.16-7.952-10.16-3.232 0-5.392 1.76-6.272 3.44h-0.096v-2.912h-6.368v21.36h6.624v-10.576c0-2.784 0.528-5.472 3.984-5.472 3.392 0 3.44 3.184 3.44 5.648v10.416h6.624z"></path>
<path d="M0.528 10.624h6.624v21.376h-6.624v-21.376z"></path>
<path d="M3.84 0c-2.128 0-3.84 1.712-3.84 3.84 0 2.112 1.712 3.872 3.84 3.872 2.112 0 3.84-1.76 3.84-3.872 0-2.128-1.728-3.84-3.84-3.84v0z"></path>
</symbol>
<symbol id="twitter" viewBox="0 0 32 32">
<path d="M32 6.064c-1.2 0.528-2.464 0.88-3.792 1.040 1.36-0.816 2.4-2.080 2.896-3.616-1.28 0.752-2.672 1.28-4.16 1.584-1.216-1.28-2.928-2.080-4.8-2.080-3.632 0-6.56 2.944-6.56 6.56 0 0.528 0.048 1.024 0.16 1.504-5.456-0.272-10.288-2.88-13.52-6.864-0.576 0.976-0.896 2.096-0.896 3.312 0 2.272 1.168 4.288 2.912 5.456-1.056-0.032-2.096-0.336-2.96-0.816 0 0.016 0 0.048 0 0.080 0 3.184 2.272 5.84 5.248 6.448-0.528 0.144-1.12 0.208-1.712 0.208-0.432 0-0.848-0.016-1.248-0.112 0.848 2.608 3.264 4.512 6.128 4.576-2.224 1.744-5.072 2.8-8.128 2.8-0.544 0-1.056-0.032-1.568-0.096 2.896 1.872 6.336 2.944 10.064 2.944 12.064 0 18.656-10 18.656-18.672 0-0.288 0-0.56-0.016-0.848 1.296-0.928 2.4-2.080 3.296-3.408z"></path>
</symbol>
<symbol id="cross" viewBox="0 0 32 32">
<path d="M30.178 4.669l-2.863-2.863-11.323 11.323-11.323-11.323-2.863 2.863 11.323 11.323-11.323 11.323 2.863 2.863 11.323-11.323 11.323 11.323 2.863-2.863-11.323-11.323 11.323-11.323z"></path>
<path fill="none" stroke="#fff" style="stroke: var(--color1, #fff)" stroke-linejoin="miter" stroke-linecap="butt" stroke-miterlimit="4" stroke-width="2.5777" d="M27.315 1.806l-11.323 11.323-11.323-11.323-2.863 2.863 11.323 11.323-11.323 11.323 2.863 2.863 11.323-11.323 11.323 11.323 2.863-2.863-11.323-11.323 11.323-11.323-2.863-2.863z"></path>
</symbol>
<symbol id="human" viewBox="0 0 32 32">
<path d="M16 16c4.4 0 8-3.6 8-8 0-4.427-3.6-8-8-8-4.427 0-8 3.573-8 8 0 4.4 3.573 8 8 8zM16 20c-5.36 0-16 2.667-16 8v2c0 1.093 0.88 2 2 2h28c1.093 0 2-0.907 2-2v-2c0-5.333-10.667-8-16-8z"></path>
</symbol>
<symbol id="phone" viewBox="0 0 32 32">
<path d="M28.849 21.809l-4.529-0.517c-1.083-0.123-2.142 0.246-2.905 1.009l-3.298 3.274c-5.068-2.62-9.097-6.649-11.647-11.568l-0.070-0.149 3.274-3.298c0.788-0.763 1.157-1.846 1.034-2.929l-0.517-4.48c-0.205-1.781-1.704-3.151-3.523-3.151-0.008 0-0.015 0-0.023 0h-3.1c-1.994 0-3.668 1.674-3.545 3.668 0.935 15.212 13.095 27.372 28.308 28.308 1.994 0.123 3.692-1.551 3.692-3.545v-3.102c0-1.797-1.354-3.298-3.151-3.52z"></path>
</symbol>
<symbol id="mail" viewBox="0 0 40 32">
<path d="M36 0h-32c-2.213 0-4 1.787-4 4v24c0 2.187 1.787 4 4 4h32c2.187 0 4-1.813 4-4v-24c0-2.213-1.813-4-4-4zM35.2 8.48l-14.16 8.853c-0.299 0.188-0.663 0.3-1.053 0.3s-0.754-0.112-1.062-0.305l0.008 0.005-14.133-8.853c-0.483-0.303-0.8-0.832-0.8-1.436 0-0.002 0-0.003 0-0.005v0c0-1.333 1.44-2.133 2.587-1.44l13.413 8.4 13.387-8.4c1.147-0.693 2.613 0.107 2.613 1.44 0 0.587-0.32 1.12-0.8 1.44z"></path>
</symbol>
<symbol id="paper-plane" viewBox="0 0 31 32">
<path fill="#fff" style="fill: var(--color1, #fff)" d="M30.638 1.156l-29.205 16.428 9.333 3.456 14.396-13.495-10.952 14.773v8.044l5.233-6.109 6.632 2.458 4.563-25.554z"></path>
<path fill="none" stroke="#fff" style="stroke: var(--color1, #fff)" stroke-linejoin="miter" stroke-linecap="butt" stroke-miterlimit="4" stroke-width="1.2164" d="M1.433 17.584l9.333 3.456 14.396-13.495-10.952 14.773v8.044l5.233-6.109 6.632 2.458 4.563-25.554-29.205 16.428z"></path>
</symbol>
<symbol id="nav-menu" viewBox="0 0 48 32">
<path d="M0 5.334v-5.334h48v5.334h-48zM0 18.666h48v-5.332h-48v5.332zM0 32h48v-5.334h-48v5.334z"></path>
</symbol>
</defs>
</svg>